<svg id="Layer_1" data-name="Layer 1" xmlns="http://www.w3.org/2000/svg" viewBox="0 0 260.72 260.22"><path d="M260.36,0H-.36V260.22H260.36Z" transform="translate(0.36)" style="fill:#175c37"/><path d="M17.5,103.45l10.62,37h.12L39,103.45H44.2l10.74,37h.12l10.5-36.95h4.61l-12.68,43h-5.1l-10.8-36.89h-.12l-10.8,36.89h-5.1l-12.68-43Z" transform="translate(0.36)" style="fill:#fff"/><path d="M112.1,108.76a22,22,0,0,1,6.37,16.17,22,22,0,0,1-6.37,16.17,21.67,21.67,0,0,1-16,6.4,21.67,21.67,0,0,1-16-6.4,22,22,0,0,1-6.37-16.17,22,22,0,0,1,6.37-16.17,21.67,21.67,0,0,1,16-6.4A21.67,21.67,0,0,1,112.1,108.76ZM109,138.19a20.5,20.5,0,0,0,0-26.55,16.48,16.48,0,0,0-12.9-5.46,16.45,16.45,0,0,0-12.89,5.46,20.46,20.46,0,0,0,0,26.55,16.49,16.49,0,0,0,12.89,5.43A16.56,16.56,0,0,0,109,138.19Z" transform="translate(0.36)" style="fill:#fff"/><path d="M131.94,126.32v20.09h-4.37v-43h12.62q6.8,0,10.74,2.76t3.95,8.71a10,10,0,0,1-3.07,7.58,13.25,13.25,0,0,1-7.92,3.46l12.56,20.45h-5.34l-11.89-20.09Zm0-19.11v15.35h7.58c3.52,0,6.23-.64,8.14-1.94a6.45,6.45,0,0,0,2.85-5.7q0-7.71-10.8-7.71Z" transform="translate(0.36)" style="fill:#fff"/><path d="M198.36,141.75a35.23,35.23,0,0,0,7.38,4l-1.69,4a33.69,33.69,0,0,1-9.33-5.33,21.5,21.5,0,0,1-10.67,2.7,20.57,20.57,0,0,1-10.7-2.85,19,19,0,0,1-7.39-8,25.42,25.42,0,0,1-2.59-11.61A26,26,0,0,1,166,113a18.36,18.36,0,0,1,7.42-8,21.36,21.36,0,0,1,10.77-2.75A20.83,20.83,0,0,1,195,105.07a18.62,18.62,0,0,1,7.36,8,25.83,25.83,0,0,1,2.54,11.59,26.9,26.9,0,0,1-1.63,9.65A20.09,20.09,0,0,1,198.36,141.75Zm-12.65-7.34a21.26,21.26,0,0,1,8.2,4.14q5.07-4.62,5.07-13.89a22.09,22.09,0,0,0-1.79-9.21,13.71,13.71,0,0,0-5.24-6.11,15,15,0,0,0-18.41,2.22q-4.23,4.39-4.24,13.14,0,8.46,4.19,13a14,14,0,0,0,10.71,4.53,14.7,14.7,0,0,0,5.81-1.16,18.62,18.62,0,0,0-5.69-2.48Z" transform="translate(0.36)" style="fill:#fff"/><path d="M216,103.45l11.77,17.35,11.72-17.35h5.21L230.41,123.9l15.78,22.51h-5.46l-13.11-19.36-13,19.36h-5.47l15.78-22.57-14.38-20.39Z" transform="translate(0.36)" style="fill:#fff"/></svg>