<svg width="16" height="16" viewBox="0 0 16 16" fill="none" xmlns="http://www.w3.org/2000/svg">
<g clip-path="url(#clip0_1_52148)">
<path d="M11.9613 11.9601C10.8217 12.8287 9.43404 13.31 8.0013 13.3334C3.33464 13.3334 0.667969 8.00008 0.667969 8.00008C1.49723 6.45468 2.64739 5.10449 4.0413 4.04008M6.6013 2.82675C7.06019 2.71933 7.53001 2.66564 8.0013 2.66675C12.668 2.66675 15.3346 8.00008 15.3346 8.00008C14.93 8.75715 14.4473 9.4699 13.8946 10.1267M9.41463 9.41341C9.23154 9.60991 9.01073 9.76752 8.7654 9.87683C8.52007 9.98614 8.25524 10.0449 7.9867 10.0497C7.71815 10.0544 7.45141 10.005 7.20238 9.90441C6.95334 9.80382 6.72712 9.6541 6.5372 9.46418C6.34728 9.27427 6.19756 9.04804 6.09697 8.79901C5.99638 8.54997 5.94699 8.28323 5.95172 8.01469C5.95646 7.74615 6.01524 7.48131 6.12455 7.23598C6.23386 6.99065 6.39147 6.76985 6.58797 6.58675M0.667969 0.666748L15.3346 15.3334" stroke="#444444" stroke-width="2" stroke-linecap="round" stroke-linejoin="round"/>
</g>
<defs>
<clipPath id="clip0_1_52148">
<rect width="16" height="16" fill="white"/>
</clipPath>
</defs>
</svg>
